<mxfile host="app.diagrams.net" agent="Mozilla/5.0 (Windows NT 10.0; Win64; x64) AppleWebKit/537.36 (KHTML, like Gecko) Chrome/131.0.0.0 Safari/537.36" version="24.9.3">
  <diagram name="1 oldal" id="C_N6Quil9QY2W5AJagRr">
    <mxGraphModel dx="7641" dy="3257" grid="1" gridSize="10" guides="1" tooltips="1" connect="1" arrows="1" fold="1" page="1" pageScale="1" pageWidth="827" pageHeight="1169" math="0" shadow="0">
      <root>
        <mxCell id="0" />
        <mxCell id="1" parent="0" />
        <mxCell id="QBxJuJuQNlj4hiceifwO-6" value="" style="group" parent="1" vertex="1" connectable="0">
          <mxGeometry x="-265" y="460" width="130" height="90" as="geometry" />
        </mxCell>
        <mxCell id="QBxJuJuQNlj4hiceifwO-5" value="" style="ellipse;whiteSpace=wrap;html=1;" parent="QBxJuJuQNlj4hiceifwO-6" vertex="1">
          <mxGeometry width="130" height="90" as="geometry" />
        </mxCell>
        <mxCell id="QBxJuJuQNlj4hiceifwO-3" value="Dolgozó" style="ellipse;whiteSpace=wrap;html=1;" parent="QBxJuJuQNlj4hiceifwO-6" vertex="1">
          <mxGeometry x="5" y="5" width="120" height="80" as="geometry" />
        </mxCell>
        <mxCell id="QBxJuJuQNlj4hiceifwO-8" value="" style="group" parent="1" vertex="1" connectable="0">
          <mxGeometry x="1130" y="470" width="130" height="90" as="geometry" />
        </mxCell>
        <mxCell id="QBxJuJuQNlj4hiceifwO-7" value="" style="ellipse;whiteSpace=wrap;html=1;" parent="QBxJuJuQNlj4hiceifwO-8" vertex="1">
          <mxGeometry width="130" height="90" as="geometry" />
        </mxCell>
        <mxCell id="QBxJuJuQNlj4hiceifwO-4" value="Here" style="ellipse;whiteSpace=wrap;html=1;" parent="QBxJuJuQNlj4hiceifwO-8" vertex="1">
          <mxGeometry x="5" y="5" width="120" height="80" as="geometry" />
        </mxCell>
        <mxCell id="QBxJuJuQNlj4hiceifwO-30" value="Név" style="ellipse;whiteSpace=wrap;html=1;" parent="1" vertex="1">
          <mxGeometry x="910" y="660" width="120" height="80" as="geometry" />
        </mxCell>
        <mxCell id="QBxJuJuQNlj4hiceifwO-31" value="" style="endArrow=none;html=1;rounded=0;entryX=0.5;entryY=1;entryDx=0;entryDy=0;exitX=0.5;exitY=0;exitDx=0;exitDy=0;" parent="1" source="QBxJuJuQNlj4hiceifwO-30" target="QBxJuJuQNlj4hiceifwO-7" edge="1">
          <mxGeometry width="50" height="50" relative="1" as="geometry">
            <mxPoint x="890" y="700" as="sourcePoint" />
            <mxPoint x="940" y="650" as="targetPoint" />
          </mxGeometry>
        </mxCell>
        <mxCell id="QBxJuJuQNlj4hiceifwO-32" value="" style="group" parent="1" vertex="1" connectable="0">
          <mxGeometry x="140" y="470" width="620" height="505" as="geometry" />
        </mxCell>
        <mxCell id="QBxJuJuQNlj4hiceifwO-26" value="Név" style="ellipse;whiteSpace=wrap;html=1;" parent="QBxJuJuQNlj4hiceifwO-32" vertex="1">
          <mxGeometry y="175" width="120" height="80" as="geometry" />
        </mxCell>
        <mxCell id="QBxJuJuQNlj4hiceifwO-9" value="Kkod" style="rhombus;whiteSpace=wrap;html=1;" parent="QBxJuJuQNlj4hiceifwO-32" vertex="1">
          <mxGeometry x="50" width="80" height="80" as="geometry" />
        </mxCell>
        <mxCell id="QBxJuJuQNlj4hiceifwO-10" value="" style="endArrow=none;html=1;rounded=0;entryX=0;entryY=0.5;entryDx=0;entryDy=0;exitX=1;exitY=0.5;exitDx=0;exitDy=0;" parent="QBxJuJuQNlj4hiceifwO-32" source="QBxJuJuQNlj4hiceifwO-9" target="a_jaqQmFZ7FFGTuntJqy-4" edge="1">
          <mxGeometry width="50" height="50" relative="1" as="geometry">
            <mxPoint x="210" y="105" as="sourcePoint" />
            <mxPoint x="219" y="40" as="targetPoint" />
          </mxGeometry>
        </mxCell>
        <mxCell id="a_jaqQmFZ7FFGTuntJqy-4" value="Királynő" style="ellipse;whiteSpace=wrap;html=1;container=0;" parent="QBxJuJuQNlj4hiceifwO-32" vertex="1">
          <mxGeometry x="230" width="120" height="80" as="geometry" />
        </mxCell>
        <mxCell id="QBxJuJuQNlj4hiceifwO-11" value="Életkor" style="ellipse;whiteSpace=wrap;html=1;" parent="QBxJuJuQNlj4hiceifwO-32" vertex="1">
          <mxGeometry x="230" y="175" width="120" height="80" as="geometry" />
        </mxCell>
        <mxCell id="QBxJuJuQNlj4hiceifwO-23" value="" style="endArrow=none;html=1;rounded=0;entryX=0.5;entryY=1;entryDx=0;entryDy=0;exitX=0.5;exitY=0;exitDx=0;exitDy=0;" parent="QBxJuJuQNlj4hiceifwO-32" source="QBxJuJuQNlj4hiceifwO-43" target="QBxJuJuQNlj4hiceifwO-12" edge="1">
          <mxGeometry width="50" height="50" relative="1" as="geometry">
            <mxPoint x="480" y="385.96000000000004" as="sourcePoint" />
            <mxPoint x="480" y="285" as="targetPoint" />
          </mxGeometry>
        </mxCell>
        <mxCell id="QBxJuJuQNlj4hiceifwO-24" value="" style="endArrow=none;html=1;rounded=0;entryX=0.5;entryY=1;entryDx=0;entryDy=0;exitX=0.5;exitY=0;exitDx=0;exitDy=0;" parent="QBxJuJuQNlj4hiceifwO-32" source="QBxJuJuQNlj4hiceifwO-11" target="a_jaqQmFZ7FFGTuntJqy-4" edge="1">
          <mxGeometry width="50" height="50" relative="1" as="geometry">
            <mxPoint x="270" y="345" as="sourcePoint" />
            <mxPoint x="320" y="295" as="targetPoint" />
            <Array as="points" />
          </mxGeometry>
        </mxCell>
        <mxCell id="QBxJuJuQNlj4hiceifwO-25" value="" style="endArrow=none;html=1;rounded=0;entryX=0.5;entryY=1;entryDx=0;entryDy=0;exitX=0.5;exitY=0;exitDx=0;exitDy=0;" parent="QBxJuJuQNlj4hiceifwO-32" source="QBxJuJuQNlj4hiceifwO-101" target="a_jaqQmFZ7FFGTuntJqy-4" edge="1">
          <mxGeometry width="50" height="50" relative="1" as="geometry">
            <mxPoint x="490" y="80" as="sourcePoint" />
            <mxPoint x="320" y="295" as="targetPoint" />
          </mxGeometry>
        </mxCell>
        <mxCell id="QBxJuJuQNlj4hiceifwO-27" value="" style="endArrow=none;html=1;rounded=0;entryX=0.5;entryY=1;entryDx=0;entryDy=0;exitX=0.5;exitY=0;exitDx=0;exitDy=0;" parent="QBxJuJuQNlj4hiceifwO-32" source="QBxJuJuQNlj4hiceifwO-26" target="a_jaqQmFZ7FFGTuntJqy-4" edge="1">
          <mxGeometry width="50" height="50" relative="1" as="geometry">
            <mxPoint x="90" y="175" as="sourcePoint" />
            <mxPoint x="320" y="295" as="targetPoint" />
          </mxGeometry>
        </mxCell>
        <mxCell id="QBxJuJuQNlj4hiceifwO-43" value="Hónap" style="ellipse;whiteSpace=wrap;html=1;" parent="QBxJuJuQNlj4hiceifwO-32" vertex="1">
          <mxGeometry x="344" y="285" width="120" height="80" as="geometry" />
        </mxCell>
        <mxCell id="QBxJuJuQNlj4hiceifwO-44" value="Nap" style="ellipse;whiteSpace=wrap;html=1;" parent="QBxJuJuQNlj4hiceifwO-32" vertex="1">
          <mxGeometry x="500" y="285" width="120" height="80" as="geometry" />
        </mxCell>
        <mxCell id="QBxJuJuQNlj4hiceifwO-45" value="" style="endArrow=none;html=1;rounded=0;entryX=0.5;entryY=1;entryDx=0;entryDy=0;exitX=0.5;exitY=0;exitDx=0;exitDy=0;" parent="QBxJuJuQNlj4hiceifwO-32" source="QBxJuJuQNlj4hiceifwO-44" target="QBxJuJuQNlj4hiceifwO-12" edge="1">
          <mxGeometry width="50" height="50" relative="1" as="geometry">
            <mxPoint x="560" y="285" as="sourcePoint" />
            <mxPoint x="460" y="355" as="targetPoint" />
          </mxGeometry>
        </mxCell>
        <mxCell id="QBxJuJuQNlj4hiceifwO-102" value="" style="group" parent="QBxJuJuQNlj4hiceifwO-32" vertex="1" connectable="0">
          <mxGeometry x="415" y="170" width="130" height="90" as="geometry" />
        </mxCell>
        <mxCell id="QBxJuJuQNlj4hiceifwO-101" value="" style="ellipse;whiteSpace=wrap;html=1;" parent="QBxJuJuQNlj4hiceifwO-102" vertex="1">
          <mxGeometry width="130" height="90" as="geometry" />
        </mxCell>
        <mxCell id="QBxJuJuQNlj4hiceifwO-12" value="Pete_rakás_dátuma" style="ellipse;whiteSpace=wrap;html=1;" parent="QBxJuJuQNlj4hiceifwO-102" vertex="1">
          <mxGeometry x="5" y="5" width="120" height="80" as="geometry" />
        </mxCell>
        <mxCell id="QBxJuJuQNlj4hiceifwO-33" value="Hkod" style="rhombus;whiteSpace=wrap;html=1;" parent="1" vertex="1">
          <mxGeometry x="840" y="475" width="80" height="80" as="geometry" />
        </mxCell>
        <mxCell id="QBxJuJuQNlj4hiceifwO-34" value="" style="endArrow=none;html=1;rounded=0;entryX=0;entryY=0.5;entryDx=0;entryDy=0;exitX=1;exitY=0.5;exitDx=0;exitDy=0;" parent="1" source="QBxJuJuQNlj4hiceifwO-33" target="QBxJuJuQNlj4hiceifwO-7" edge="1">
          <mxGeometry width="50" height="50" relative="1" as="geometry">
            <mxPoint x="540" y="700" as="sourcePoint" />
            <mxPoint x="590" y="650" as="targetPoint" />
          </mxGeometry>
        </mxCell>
        <mxCell id="QBxJuJuQNlj4hiceifwO-37" value="Dkod" style="rhombus;whiteSpace=wrap;html=1;" parent="1" vertex="1">
          <mxGeometry x="-470" y="465" width="80" height="80" as="geometry" />
        </mxCell>
        <mxCell id="QBxJuJuQNlj4hiceifwO-38" value="" style="endArrow=none;html=1;rounded=0;entryX=0;entryY=0.5;entryDx=0;entryDy=0;exitX=1;exitY=0.5;exitDx=0;exitDy=0;" parent="1" source="QBxJuJuQNlj4hiceifwO-37" target="QBxJuJuQNlj4hiceifwO-5" edge="1">
          <mxGeometry width="50" height="50" relative="1" as="geometry">
            <mxPoint x="-513" y="695" as="sourcePoint" />
            <mxPoint x="-226" y="500" as="targetPoint" />
          </mxGeometry>
        </mxCell>
        <mxCell id="QBxJuJuQNlj4hiceifwO-41" value="Név" style="ellipse;whiteSpace=wrap;html=1;" parent="1" vertex="1">
          <mxGeometry x="-490" y="640" width="120" height="80" as="geometry" />
        </mxCell>
        <mxCell id="QBxJuJuQNlj4hiceifwO-42" value="" style="endArrow=none;html=1;rounded=0;entryX=0.5;entryY=1;entryDx=0;entryDy=0;exitX=0.5;exitY=0;exitDx=0;exitDy=0;" parent="1" source="QBxJuJuQNlj4hiceifwO-41" target="QBxJuJuQNlj4hiceifwO-5" edge="1">
          <mxGeometry width="50" height="50" relative="1" as="geometry">
            <mxPoint x="30" y="790" as="sourcePoint" />
            <mxPoint x="80" y="740" as="targetPoint" />
          </mxGeometry>
        </mxCell>
        <mxCell id="QBxJuJuQNlj4hiceifwO-52" value="Kedvenc_virág" style="ellipse;whiteSpace=wrap;html=1;" parent="1" vertex="1">
          <mxGeometry x="-260" y="640" width="120" height="80" as="geometry" />
        </mxCell>
        <mxCell id="QBxJuJuQNlj4hiceifwO-56" value="" style="endArrow=none;html=1;rounded=0;entryX=0.5;entryY=1;entryDx=0;entryDy=0;exitX=0.5;exitY=0;exitDx=0;exitDy=0;" parent="1" source="QBxJuJuQNlj4hiceifwO-52" target="QBxJuJuQNlj4hiceifwO-5" edge="1">
          <mxGeometry width="50" height="50" relative="1" as="geometry">
            <mxPoint x="-20" y="760" as="sourcePoint" />
            <mxPoint x="30" y="710" as="targetPoint" />
          </mxGeometry>
        </mxCell>
        <mxCell id="QBxJuJuQNlj4hiceifwO-59" value="Méret" style="ellipse;whiteSpace=wrap;html=1;" parent="1" vertex="1">
          <mxGeometry x="-70" y="640" width="120" height="80" as="geometry" />
        </mxCell>
        <mxCell id="QBxJuJuQNlj4hiceifwO-60" value="" style="endArrow=none;html=1;rounded=0;entryX=0.5;entryY=1;entryDx=0;entryDy=0;exitX=0.5;exitY=0;exitDx=0;exitDy=0;" parent="1" source="QBxJuJuQNlj4hiceifwO-59" target="QBxJuJuQNlj4hiceifwO-5" edge="1">
          <mxGeometry width="50" height="50" relative="1" as="geometry">
            <mxPoint x="10" y="740" as="sourcePoint" />
            <mxPoint x="60" y="690" as="targetPoint" />
          </mxGeometry>
        </mxCell>
        <mxCell id="QBxJuJuQNlj4hiceifwO-61" value="Testhossz" style="ellipse;whiteSpace=wrap;html=1;" parent="1" vertex="1">
          <mxGeometry x="-160" y="800" width="120" height="80" as="geometry" />
        </mxCell>
        <mxCell id="QBxJuJuQNlj4hiceifwO-62" value="Súly" style="ellipse;whiteSpace=wrap;html=1;" parent="1" vertex="1">
          <mxGeometry x="40" y="800" width="120" height="80" as="geometry" />
        </mxCell>
        <mxCell id="QBxJuJuQNlj4hiceifwO-65" value="" style="endArrow=none;html=1;rounded=0;entryX=0.5;entryY=1;entryDx=0;entryDy=0;exitX=0.5;exitY=0;exitDx=0;exitDy=0;" parent="1" source="QBxJuJuQNlj4hiceifwO-61" target="QBxJuJuQNlj4hiceifwO-59" edge="1">
          <mxGeometry width="50" height="50" relative="1" as="geometry">
            <mxPoint x="140" y="790" as="sourcePoint" />
            <mxPoint x="190" y="740" as="targetPoint" />
          </mxGeometry>
        </mxCell>
        <mxCell id="QBxJuJuQNlj4hiceifwO-66" value="" style="endArrow=none;html=1;rounded=0;entryX=0.5;entryY=1;entryDx=0;entryDy=0;exitX=0.5;exitY=0;exitDx=0;exitDy=0;" parent="1" source="QBxJuJuQNlj4hiceifwO-62" target="QBxJuJuQNlj4hiceifwO-59" edge="1">
          <mxGeometry width="50" height="50" relative="1" as="geometry">
            <mxPoint x="130" y="790" as="sourcePoint" />
            <mxPoint x="190" y="740" as="targetPoint" />
          </mxGeometry>
        </mxCell>
        <mxCell id="QBxJuJuQNlj4hiceifwO-69" value="Szárnysebesség" style="ellipse;whiteSpace=wrap;html=1;" parent="1" vertex="1">
          <mxGeometry x="1390" y="660" width="120" height="80" as="geometry" />
        </mxCell>
        <mxCell id="QBxJuJuQNlj4hiceifwO-72" value="" style="endArrow=none;html=1;rounded=0;entryX=0.5;entryY=1;entryDx=0;entryDy=0;exitX=0.5;exitY=0;exitDx=0;exitDy=0;" parent="1" source="QBxJuJuQNlj4hiceifwO-69" target="QBxJuJuQNlj4hiceifwO-7" edge="1">
          <mxGeometry width="50" height="50" relative="1" as="geometry">
            <mxPoint x="1130" y="740" as="sourcePoint" />
            <mxPoint x="1180" y="690" as="targetPoint" />
          </mxGeometry>
        </mxCell>
        <mxCell id="QBxJuJuQNlj4hiceifwO-73" value="Életkor" style="ellipse;whiteSpace=wrap;html=1;" parent="1" vertex="1">
          <mxGeometry x="1135" y="660" width="120" height="80" as="geometry" />
        </mxCell>
        <mxCell id="QBxJuJuQNlj4hiceifwO-74" value="" style="endArrow=none;html=1;rounded=0;entryX=0.5;entryY=1;entryDx=0;entryDy=0;exitX=0.5;exitY=0;exitDx=0;exitDy=0;" parent="1" source="QBxJuJuQNlj4hiceifwO-73" target="QBxJuJuQNlj4hiceifwO-7" edge="1">
          <mxGeometry width="50" height="50" relative="1" as="geometry">
            <mxPoint x="1130" y="740" as="sourcePoint" />
            <mxPoint x="1180" y="690" as="targetPoint" />
          </mxGeometry>
        </mxCell>
        <mxCell id="QBxJuJuQNlj4hiceifwO-76" value="Hőmérséklet" style="ellipse;whiteSpace=wrap;html=1;" parent="1" vertex="1">
          <mxGeometry x="-1270" y="640" width="120" height="80" as="geometry" />
        </mxCell>
        <mxCell id="QBxJuJuQNlj4hiceifwO-77" value="" style="endArrow=none;html=1;rounded=0;exitX=0.5;exitY=0;exitDx=0;exitDy=0;entryX=0.5;entryY=1;entryDx=0;entryDy=0;" parent="1" source="QBxJuJuQNlj4hiceifwO-76" target="QBxJuJuQNlj4hiceifwO-78" edge="1">
          <mxGeometry width="50" height="50" relative="1" as="geometry">
            <mxPoint x="-540" y="650" as="sourcePoint" />
            <mxPoint x="-790" y="710" as="targetPoint" />
          </mxGeometry>
        </mxCell>
        <mxCell id="QBxJuJuQNlj4hiceifwO-79" value="" style="group" parent="1" vertex="1" connectable="0">
          <mxGeometry x="-980" y="455" width="130" height="90" as="geometry" />
        </mxCell>
        <mxCell id="QBxJuJuQNlj4hiceifwO-78" value="" style="ellipse;whiteSpace=wrap;html=1;" parent="QBxJuJuQNlj4hiceifwO-79" vertex="1">
          <mxGeometry width="130" height="90" as="geometry" />
        </mxCell>
        <mxCell id="QBxJuJuQNlj4hiceifwO-50" value="Kaptár" style="ellipse;whiteSpace=wrap;html=1;" parent="QBxJuJuQNlj4hiceifwO-79" vertex="1">
          <mxGeometry x="5" y="5" width="120" height="80" as="geometry" />
        </mxCell>
        <mxCell id="QBxJuJuQNlj4hiceifwO-81" value="Lokáció" style="ellipse;whiteSpace=wrap;html=1;" parent="1" vertex="1">
          <mxGeometry x="-975" y="640" width="120" height="80" as="geometry" />
        </mxCell>
        <mxCell id="QBxJuJuQNlj4hiceifwO-82" value="" style="endArrow=none;html=1;rounded=0;entryX=0.5;entryY=1;entryDx=0;entryDy=0;exitX=0.5;exitY=0;exitDx=0;exitDy=0;" parent="1" source="QBxJuJuQNlj4hiceifwO-81" target="QBxJuJuQNlj4hiceifwO-78" edge="1">
          <mxGeometry width="50" height="50" relative="1" as="geometry">
            <mxPoint x="-830" y="680" as="sourcePoint" />
            <mxPoint x="-780" y="630" as="targetPoint" />
          </mxGeometry>
        </mxCell>
        <mxCell id="QBxJuJuQNlj4hiceifwO-83" value="Keretszám" style="ellipse;whiteSpace=wrap;html=1;" parent="1" vertex="1">
          <mxGeometry x="-690" y="640" width="120" height="80" as="geometry" />
        </mxCell>
        <mxCell id="QBxJuJuQNlj4hiceifwO-84" value="" style="endArrow=none;html=1;rounded=0;entryX=0.5;entryY=1;entryDx=0;entryDy=0;exitX=0.5;exitY=0;exitDx=0;exitDy=0;" parent="1" source="QBxJuJuQNlj4hiceifwO-83" target="QBxJuJuQNlj4hiceifwO-78" edge="1">
          <mxGeometry width="50" height="50" relative="1" as="geometry">
            <mxPoint x="-830" y="680" as="sourcePoint" />
            <mxPoint x="-780" y="630" as="targetPoint" />
          </mxGeometry>
        </mxCell>
        <mxCell id="QBxJuJuQNlj4hiceifwO-89" value="Város" style="ellipse;whiteSpace=wrap;html=1;" parent="1" vertex="1">
          <mxGeometry x="-1140" y="800" width="120" height="80" as="geometry" />
        </mxCell>
        <mxCell id="QBxJuJuQNlj4hiceifwO-90" value="Utca" style="ellipse;whiteSpace=wrap;html=1;" parent="1" vertex="1">
          <mxGeometry x="-975" y="800" width="120" height="80" as="geometry" />
        </mxCell>
        <mxCell id="QBxJuJuQNlj4hiceifwO-91" value="Házszám" style="ellipse;whiteSpace=wrap;html=1;" parent="1" vertex="1">
          <mxGeometry x="-810" y="800" width="120" height="80" as="geometry" />
        </mxCell>
        <mxCell id="QBxJuJuQNlj4hiceifwO-94" value="" style="endArrow=none;html=1;rounded=0;entryX=0.5;entryY=1;entryDx=0;entryDy=0;exitX=0.5;exitY=0;exitDx=0;exitDy=0;" parent="1" source="QBxJuJuQNlj4hiceifwO-90" target="QBxJuJuQNlj4hiceifwO-81" edge="1">
          <mxGeometry width="50" height="50" relative="1" as="geometry">
            <mxPoint x="-780" y="950" as="sourcePoint" />
            <mxPoint x="-730" y="900" as="targetPoint" />
          </mxGeometry>
        </mxCell>
        <mxCell id="QBxJuJuQNlj4hiceifwO-95" value="" style="endArrow=none;html=1;rounded=0;entryX=0.5;entryY=1;entryDx=0;entryDy=0;exitX=0.5;exitY=0;exitDx=0;exitDy=0;" parent="1" source="QBxJuJuQNlj4hiceifwO-89" target="QBxJuJuQNlj4hiceifwO-81" edge="1">
          <mxGeometry width="50" height="50" relative="1" as="geometry">
            <mxPoint x="-780" y="950" as="sourcePoint" />
            <mxPoint x="-730" y="900" as="targetPoint" />
          </mxGeometry>
        </mxCell>
        <mxCell id="QBxJuJuQNlj4hiceifwO-96" value="" style="endArrow=none;html=1;rounded=0;entryX=0.5;entryY=1;entryDx=0;entryDy=0;exitX=0.5;exitY=0;exitDx=0;exitDy=0;" parent="1" source="QBxJuJuQNlj4hiceifwO-91" target="QBxJuJuQNlj4hiceifwO-81" edge="1">
          <mxGeometry width="50" height="50" relative="1" as="geometry">
            <mxPoint x="-780" y="950" as="sourcePoint" />
            <mxPoint x="-730" y="900" as="targetPoint" />
          </mxGeometry>
        </mxCell>
        <mxCell id="QBxJuJuQNlj4hiceifwO-118" value="Kapkod" style="rhombus;whiteSpace=wrap;html=1;" parent="1" vertex="1">
          <mxGeometry x="-1210" y="460" width="80" height="80" as="geometry" />
        </mxCell>
        <mxCell id="QBxJuJuQNlj4hiceifwO-119" value="" style="endArrow=none;html=1;rounded=0;entryX=0;entryY=0.5;entryDx=0;entryDy=0;exitX=1;exitY=0.5;exitDx=0;exitDy=0;" parent="1" source="QBxJuJuQNlj4hiceifwO-118" target="QBxJuJuQNlj4hiceifwO-78" edge="1">
          <mxGeometry width="50" height="50" relative="1" as="geometry">
            <mxPoint x="-880" y="630" as="sourcePoint" />
            <mxPoint x="-830" y="580" as="targetPoint" />
          </mxGeometry>
        </mxCell>
        <mxCell id="QBxJuJuQNlj4hiceifwO-124" value="" style="group" parent="1" vertex="1" connectable="0">
          <mxGeometry x="-2010" y="-35" width="690" height="410" as="geometry" />
        </mxCell>
        <mxCell id="QBxJuJuQNlj4hiceifwO-109" value="" style="group" parent="QBxJuJuQNlj4hiceifwO-124" vertex="1" connectable="0">
          <mxGeometry x="270" width="130" height="90" as="geometry" />
        </mxCell>
        <mxCell id="QBxJuJuQNlj4hiceifwO-108" value="" style="ellipse;whiteSpace=wrap;html=1;" parent="QBxJuJuQNlj4hiceifwO-109" vertex="1">
          <mxGeometry width="130" height="90" as="geometry" />
        </mxCell>
        <mxCell id="QBxJuJuQNlj4hiceifwO-107" value="Mézkészítés" style="ellipse;whiteSpace=wrap;html=1;" parent="QBxJuJuQNlj4hiceifwO-109" vertex="1">
          <mxGeometry x="5" y="5" width="120" height="80" as="geometry" />
        </mxCell>
        <mxCell id="QBxJuJuQNlj4hiceifwO-110" value="Virág" style="ellipse;whiteSpace=wrap;html=1;" parent="QBxJuJuQNlj4hiceifwO-124" vertex="1">
          <mxGeometry x="150" y="155" width="120" height="80" as="geometry" />
        </mxCell>
        <mxCell id="QBxJuJuQNlj4hiceifwO-111" value="Mennyiség" style="ellipse;whiteSpace=wrap;html=1;" parent="QBxJuJuQNlj4hiceifwO-124" vertex="1">
          <mxGeometry x="400" y="155" width="120" height="80" as="geometry" />
        </mxCell>
        <mxCell id="QBxJuJuQNlj4hiceifwO-112" value="" style="endArrow=none;html=1;rounded=0;entryX=0.5;entryY=1;entryDx=0;entryDy=0;exitX=0.5;exitY=0;exitDx=0;exitDy=0;" parent="QBxJuJuQNlj4hiceifwO-124" source="QBxJuJuQNlj4hiceifwO-111" target="QBxJuJuQNlj4hiceifwO-108" edge="1">
          <mxGeometry width="50" height="50" relative="1" as="geometry">
            <mxPoint x="515" y="335" as="sourcePoint" />
            <mxPoint x="565" y="285" as="targetPoint" />
          </mxGeometry>
        </mxCell>
        <mxCell id="QBxJuJuQNlj4hiceifwO-113" value="" style="endArrow=none;html=1;rounded=0;exitX=0.5;exitY=0;exitDx=0;exitDy=0;entryX=0.5;entryY=1;entryDx=0;entryDy=0;" parent="QBxJuJuQNlj4hiceifwO-124" source="QBxJuJuQNlj4hiceifwO-110" target="QBxJuJuQNlj4hiceifwO-108" edge="1">
          <mxGeometry width="50" height="50" relative="1" as="geometry">
            <mxPoint x="515" y="335" as="sourcePoint" />
            <mxPoint x="335" y="155" as="targetPoint" />
          </mxGeometry>
        </mxCell>
        <mxCell id="QBxJuJuQNlj4hiceifwO-120" value="Méz_K" style="rhombus;whiteSpace=wrap;html=1;" parent="QBxJuJuQNlj4hiceifwO-124" vertex="1">
          <mxGeometry y="5" width="80" height="80" as="geometry" />
        </mxCell>
        <mxCell id="QBxJuJuQNlj4hiceifwO-121" value="Méz_D" style="rhombus;whiteSpace=wrap;html=1;" parent="QBxJuJuQNlj4hiceifwO-124" vertex="1">
          <mxGeometry x="610" y="5" width="80" height="80" as="geometry" />
        </mxCell>
        <mxCell id="QBxJuJuQNlj4hiceifwO-122" value="" style="endArrow=none;html=1;rounded=0;entryX=0;entryY=0.5;entryDx=0;entryDy=0;exitX=1;exitY=0.5;exitDx=0;exitDy=0;" parent="QBxJuJuQNlj4hiceifwO-124" source="QBxJuJuQNlj4hiceifwO-108" target="QBxJuJuQNlj4hiceifwO-121" edge="1">
          <mxGeometry width="50" height="50" relative="1" as="geometry">
            <mxPoint x="660" y="300" as="sourcePoint" />
            <mxPoint x="710" y="250" as="targetPoint" />
          </mxGeometry>
        </mxCell>
        <mxCell id="QBxJuJuQNlj4hiceifwO-123" value="" style="endArrow=none;html=1;rounded=0;entryX=0;entryY=0.5;entryDx=0;entryDy=0;exitX=1;exitY=0.5;exitDx=0;exitDy=0;" parent="QBxJuJuQNlj4hiceifwO-124" source="QBxJuJuQNlj4hiceifwO-120" target="QBxJuJuQNlj4hiceifwO-108" edge="1">
          <mxGeometry width="50" height="50" relative="1" as="geometry">
            <mxPoint x="660" y="300" as="sourcePoint" />
            <mxPoint x="710" y="250" as="targetPoint" />
          </mxGeometry>
        </mxCell>
        <mxCell id="QBxJuJuQNlj4hiceifwO-125" style="rounded=0;orthogonalLoop=1;jettySize=auto;html=1;dashed=1;edgeStyle=orthogonalEdgeStyle;entryX=0;entryY=0.5;entryDx=0;entryDy=0;exitX=0.5;exitY=1;exitDx=0;exitDy=0;" parent="1" source="QBxJuJuQNlj4hiceifwO-121" target="QBxJuJuQNlj4hiceifwO-37" edge="1">
          <mxGeometry relative="1" as="geometry">
            <mxPoint x="-1090" y="-20" as="targetPoint" />
            <Array as="points">
              <mxPoint x="-1360" y="1110" />
              <mxPoint x="-530" y="1110" />
              <mxPoint x="-530" y="505" />
            </Array>
            <mxPoint x="-1000" y="5" as="sourcePoint" />
          </mxGeometry>
        </mxCell>
        <mxCell id="QBxJuJuQNlj4hiceifwO-128" value="" style="endArrow=classic;html=1;rounded=0;dashed=1;exitX=0.5;exitY=0;exitDx=0;exitDy=0;entryX=0.5;entryY=0;entryDx=0;entryDy=0;" parent="1" source="QBxJuJuQNlj4hiceifwO-120" target="QBxJuJuQNlj4hiceifwO-118" edge="1">
          <mxGeometry width="50" height="50" relative="1" as="geometry">
            <mxPoint x="-1970" y="-80" as="sourcePoint" />
            <mxPoint x="-1170" y="410" as="targetPoint" />
            <Array as="points">
              <mxPoint x="-1970" y="-150" />
              <mxPoint x="-1170" y="-150" />
            </Array>
          </mxGeometry>
        </mxCell>
        <mxCell id="UWANeQnbJ5_13IgWGziE-1" value="" style="endArrow=classic;startArrow=classic;html=1;rounded=0;entryX=0.5;entryY=0;entryDx=0;entryDy=0;exitX=0.51;exitY=0.979;exitDx=0;exitDy=0;exitPerimeter=0;" edge="1" parent="1" source="UWANeQnbJ5_13IgWGziE-8" target="a_jaqQmFZ7FFGTuntJqy-4">
          <mxGeometry width="50" height="50" relative="1" as="geometry">
            <mxPoint x="90" y="210" as="sourcePoint" />
            <mxPoint x="160" y="520" as="targetPoint" />
          </mxGeometry>
        </mxCell>
        <mxCell id="UWANeQnbJ5_13IgWGziE-2" value="" style="endArrow=classic;startArrow=classic;html=1;rounded=0;entryX=0.497;entryY=0.982;entryDx=0;entryDy=0;exitX=0.5;exitY=0;exitDx=0;exitDy=0;entryPerimeter=0;" edge="1" parent="1" source="QBxJuJuQNlj4hiceifwO-5" target="UWANeQnbJ5_13IgWGziE-8">
          <mxGeometry width="50" height="50" relative="1" as="geometry">
            <mxPoint x="-40" y="410" as="sourcePoint" />
            <mxPoint x="90" y="210" as="targetPoint" />
          </mxGeometry>
        </mxCell>
        <mxCell id="UWANeQnbJ5_13IgWGziE-3" value="" style="endArrow=classic;html=1;rounded=0;exitX=0.495;exitY=0.994;exitDx=0;exitDy=0;exitPerimeter=0;" edge="1" parent="1" source="UWANeQnbJ5_13IgWGziE-8">
          <mxGeometry width="50" height="50" relative="1" as="geometry">
            <mxPoint x="90" y="210" as="sourcePoint" />
            <mxPoint x="-190" y="450" as="targetPoint" />
          </mxGeometry>
        </mxCell>
        <mxCell id="UWANeQnbJ5_13IgWGziE-4" value="" style="endArrow=classic;startArrow=classic;html=1;rounded=0;entryX=0.504;entryY=0.988;entryDx=0;entryDy=0;exitX=0.5;exitY=0;exitDx=0;exitDy=0;entryPerimeter=0;" edge="1" parent="1" source="QBxJuJuQNlj4hiceifwO-78" target="UWANeQnbJ5_13IgWGziE-8">
          <mxGeometry width="50" height="50" relative="1" as="geometry">
            <mxPoint x="-430" y="340" as="sourcePoint" />
            <mxPoint x="90" y="210" as="targetPoint" />
          </mxGeometry>
        </mxCell>
        <mxCell id="UWANeQnbJ5_13IgWGziE-5" value="" style="endArrow=classic;startArrow=classic;html=1;rounded=0;entryX=0.464;entryY=0.976;entryDx=0;entryDy=0;exitX=0.5;exitY=0;exitDx=0;exitDy=0;entryPerimeter=0;" edge="1" parent="1" source="QBxJuJuQNlj4hiceifwO-7" target="UWANeQnbJ5_13IgWGziE-8">
          <mxGeometry width="50" height="50" relative="1" as="geometry">
            <mxPoint x="510" y="340" as="sourcePoint" />
            <mxPoint x="90" y="210" as="targetPoint" />
          </mxGeometry>
        </mxCell>
        <mxCell id="UWANeQnbJ5_13IgWGziE-6" value="" style="endArrow=classic;html=1;rounded=0;exitX=0.504;exitY=0.994;exitDx=0;exitDy=0;exitPerimeter=0;" edge="1" parent="1" source="UWANeQnbJ5_13IgWGziE-8">
          <mxGeometry width="50" height="50" relative="1" as="geometry">
            <mxPoint x="90" y="210" as="sourcePoint" />
            <mxPoint x="1190" y="470" as="targetPoint" />
          </mxGeometry>
        </mxCell>
        <mxCell id="UWANeQnbJ5_13IgWGziE-8" value="Méhkaptár" style="html=1;whiteSpace=wrap;aspect=fixed;shape=isoRectangle;" vertex="1" parent="1">
          <mxGeometry x="15" y="125" width="150" height="90" as="geometry" />
        </mxCell>
        <mxCell id="UWANeQnbJ5_13IgWGziE-9" value="F4XQRO_méhkaptár" style="rhombus;whiteSpace=wrap;html=1;" vertex="1" parent="1">
          <mxGeometry x="5" y="-150" width="170" height="80" as="geometry" />
        </mxCell>
        <mxCell id="UWANeQnbJ5_13IgWGziE-10" value="" style="endArrow=classic;startArrow=classic;html=1;rounded=0;entryX=0.5;entryY=1;entryDx=0;entryDy=0;exitX=0.492;exitY=0.06;exitDx=0;exitDy=0;exitPerimeter=0;" edge="1" parent="1" source="UWANeQnbJ5_13IgWGziE-8" target="UWANeQnbJ5_13IgWGziE-9">
          <mxGeometry width="50" height="50" relative="1" as="geometry">
            <mxPoint x="110" y="160" as="sourcePoint" />
            <mxPoint x="160" y="110" as="targetPoint" />
          </mxGeometry>
        </mxCell>
      </root>
    </mxGraphModel>
  </diagram>
</mxfile>
